<svg width="278" height="80" viewBox="0 0 278 80" fill="none" xmlns="http://www.w3.org/2000/svg">
<path d="M10.0645 51.7866C11.6827 53.8225 13.3308 56.3825 14.1933 57.9288C15.2437 59.9389 15.6792 61.2962 16.4606 63.7273C16.9175 65.0588 17.353 65.4626 18.2667 65.4626C19.2659 65.4626 19.7227 64.784 20.0728 63.7273C20.803 61.4466 21.3666 59.7113 22.259 58.0576C25.7004 51.5289 31.3109 46.8901 34.4706 40.5331C34.4706 40.5331 36.55 36.6503 36.55 31.2125C36.55 26.1442 34.5005 22.6221 34.5005 22.6221L10.0773 51.8296L10.0645 51.7866Z" fill="#34A853"/>
<path d="M1.77989 39.8462C3.74826 44.3562 7.50141 48.3078 10.0633 51.787L23.6412 35.594C23.6412 35.594 21.7241 38.1196 18.2613 38.1196C14.4014 38.1196 11.2588 35.027 11.2588 31.1184C11.2588 28.4296 12.8515 26.5654 12.8515 26.5654C2.86015 28.0602 3.41522 30.4956 1.75 39.8377L1.77989 39.8462Z" fill="#FBBC04"/>
<path d="M23.8124 13.5459C28.3384 15.0106 32.1812 18.0988 34.4869 22.6088L23.6416 35.6233C23.6416 35.6233 25.2342 33.7506 25.2342 31.0704C25.2342 27.0801 21.8867 24.0692 18.2745 24.0692C14.8458 24.0692 12.8945 26.5647 12.8945 26.5647C13.7271 24.6576 22.3308 14.1945 23.8252 13.5502L23.8124 13.5459Z" fill="#4285F4"/>
<path d="M4.25781 19.2719C6.95632 16.0419 11.6873 12.7002 18.22 12.7002C21.3754 12.7002 23.7708 13.5421 23.7708 13.5421L12.8828 26.5566C12.1484 26.1558 4.98368 20.5433 4.25781 19.2547V19.2719Z" fill="#1A73E8"/>
<path d="M1.7805 39.8456C1.7805 39.8456 0 36.2892 0 31.1693C0 26.3157 1.88725 22.0634 4.26979 19.3145L12.8948 26.6163L1.79331 39.8456H1.7805Z" fill="#EA4335"/>
<path fill-rule="evenodd" clip-rule="evenodd" d="M165.462 40.4424L174.813 36.5344C174.294 35.2166 172.758 34.3078 170.928 34.3078C168.591 34.2965 165.349 36.3754 165.462 40.4424ZM176.439 44.2253L180.008 46.611C178.856 48.3264 176.089 51.2801 171.29 51.2801C165.349 51.2801 161.058 46.6564 161.058 40.7605C161.058 34.501 165.383 30.2408 170.781 30.2408C175.739 30.4112 178.822 33.6262 180.211 38.1249L166.208 43.9413C167.281 46.0543 168.941 47.1336 171.278 47.1336C173.605 47.1336 175.231 45.9748 176.417 44.2253H176.439ZM153.718 50.6439H158.314V19.744H153.718V50.6439ZM146.219 40.7945C146.219 37.0911 143.757 34.376 140.629 34.376C137.467 34.376 134.802 37.0911 134.802 40.7945C134.802 44.4639 137.456 47.1336 140.629 47.1336C143.769 47.1336 146.219 44.4639 146.219 40.7945ZM150.262 30.877V49.7351C150.262 57.5055 145.711 60.6977 140.324 60.6977C135.254 60.6977 132.205 57.2669 131.053 54.4837L135.05 52.8137C135.762 54.5291 137.512 56.5626 140.324 56.5626C145.463 55.9753 145.914 52.6319 145.914 48.8717H145.745C144.717 50.144 142.73 51.2687 140.234 51.2687C135.005 51.2687 130.206 46.6905 130.206 40.7832C130.206 34.8418 134.994 30.2181 140.234 30.2181C142.73 30.2181 144.717 31.3314 145.745 32.5697H145.903V30.8543C145.903 30.8429 150.262 30.8429 150.262 30.8429V30.877ZM100.121 40.7605C100.121 36.9775 97.4333 34.3873 94.3278 34.3873C91.2109 34.3873 88.5345 36.9775 88.5345 40.7605C88.5345 44.5093 91.2222 47.1336 94.3278 47.1336C97.4333 47.1336 100.121 44.498 100.121 40.7605ZM104.638 40.7605C104.638 46.8155 100.008 51.2801 94.3278 51.2801C88.6474 51.2801 84.0172 46.8155 84.0172 40.7605C84.0172 34.66 88.6474 30.2408 94.3278 30.2408C100.008 30.2408 104.638 34.66 104.638 40.7605ZM123.272 40.7605C123.272 36.9775 120.584 34.3873 117.478 34.3873C114.362 34.3873 111.685 36.9775 111.685 40.7605C111.685 44.5093 114.373 47.1336 117.478 47.1336C120.584 47.1336 123.272 44.498 123.272 40.7605ZM127.789 40.7605C127.789 46.8155 123.159 51.2801 117.478 51.2801C111.798 51.2801 107.168 46.8155 107.168 40.7605C107.168 34.66 111.798 30.2408 117.478 30.2408C123.159 30.2408 127.789 34.66 127.789 40.7605ZM66.355 51.2801C57.4109 51.2801 49.8672 43.9413 49.8672 34.9213C49.8672 25.9126 57.3996 18.5625 66.355 18.5625C71.3126 18.5625 74.836 20.5165 77.4899 23.0725L74.3617 26.2193C72.4645 24.4244 69.8897 23.0271 66.355 23.0271C59.8163 23.0271 54.7232 28.3323 54.7232 34.8418C54.7232 41.4193 59.8389 46.6564 66.355 46.6564C70.5899 46.6564 73.0066 44.941 74.5537 43.3847C75.8185 42.1123 76.6542 40.272 76.9704 37.7613H66.355V33.2968H81.2618C81.4199 34.092 81.4989 35.0462 81.4989 36.08C81.4989 39.4313 80.5842 43.5778 77.6593 46.5201C74.8134 49.5306 71.1658 51.1324 66.3663 51.1324" fill="#5F6368"/>
<path d="M191 50.4102V22.9404H194.527L204.01 39.6716H204.153L213.637 22.9404H217.163V50.4102H213.638L213.781 29.5083H213.638L205.107 44.5615H203.058L194.528 29.5083H194.385C194.645 36.4607 194.528 43.4589 194.528 50.4102H191ZM228.172 50.8896C226.171 50.8896 224.55 50.3143 223.216 49.1638C221.881 48.0132 221.214 46.4791 221.214 44.6083C221.214 42.5469 222.024 40.9649 223.597 39.8143C225.17 38.6637 227.124 38.0884 229.411 38.0884C231.46 38.0884 233.176 38.472 234.463 39.239C234.429 35.2516 231.689 34.1573 229.554 34.1573C227.538 34.2537 225.789 35.1017 225.074 36.8899L221.881 35.4997C222.31 34.397 223.168 33.3412 224.455 32.3835C225.742 31.4259 227.41 30.9453 229.506 30.9453C231.889 30.9453 233.891 31.6644 235.464 33.0547C237.036 34.445 237.846 36.4585 237.846 38.9993V50.3611H234.51V47.7724C232.952 49.7379 230.846 50.8453 228.172 50.8885V50.8896ZM234.463 42.1645C232.409 40.592 228.124 40.3955 226.123 42.0207C224.55 43.5548 224.383 45.6114 226.028 46.8147C230.002 49.3795 234.606 45.386 234.463 42.1645ZM251.524 50.8896C250.094 50.8896 248.807 50.602 247.711 49.9788C246.615 49.3555 245.757 48.5885 245.185 47.6776H244.995L245.138 50.2664V58.5601H241.659V31.4738H244.995V34.0626H245.138C245.71 33.1517 246.52 32.3847 247.664 31.7615C248.807 31.1382 250.094 30.8506 251.476 30.8506C253.907 30.8506 255.956 31.8094 257.719 33.727C259.482 35.6446 260.339 38.0416 260.339 40.8701C260.339 43.6986 259.481 46.0956 257.719 48.0132C256.003 49.9308 253.907 50.8896 251.524 50.8896ZM250.952 47.6297C252.572 47.6297 253.954 47.0065 255.146 45.76C256.337 44.5136 256.909 42.8836 256.909 40.8222C256.909 38.7607 256.337 37.1308 255.146 35.8843C253.954 34.6379 252.572 34.0146 250.952 34.0146C249.284 34.0146 247.902 34.6379 246.758 35.8364C245.614 37.0828 245.042 38.7128 245.042 40.7742C245.042 42.8357 245.614 44.5136 246.758 45.7121C247.902 47.0544 249.284 47.6297 250.952 47.6297ZM270.586 50.8896C268.489 50.8896 266.774 50.3623 265.439 49.3555C264.057 48.3488 263.104 47.0544 262.437 45.5203L265.582 44.2259C266.583 46.575 268.251 47.7735 270.634 47.7735C271.73 47.7735 272.636 47.5349 273.303 47.0544C274.018 46.575 274.351 45.9518 274.351 45.1368C274.351 43.8903 273.493 43.0754 271.778 42.6439L268.013 41.733C266.821 41.4454 265.678 40.8222 264.629 40.0072C263.581 39.1922 263.009 37.9937 263.009 36.5555C263.009 34.8776 263.724 33.5352 265.201 32.5285C266.679 31.4738 268.394 30.9944 270.396 30.9944C272.064 30.9944 273.541 31.3779 274.828 32.145C276.115 32.912 277.068 33.9667 277.592 35.4049L274.542 36.6514C273.875 34.9734 272.445 34.1585 270.253 34.1585C269.204 34.1585 268.346 34.397 267.633 34.8296C266.919 35.2622 266.584 35.8364 266.584 36.6034C266.584 37.6581 267.394 38.4251 269.062 38.8087L272.78 39.6716C274.543 40.1031 275.83 40.7742 276.688 41.781C277.545 42.7877 277.927 43.8903 277.927 45.1368C277.927 46.8147 277.259 48.2529 275.877 49.3555C274.543 50.3144 272.78 50.8896 270.587 50.8896H270.586Z" fill="#63666A"/>
</svg>
