<svg id="Слой_1" data-name="Слой 1" xmlns="http://www.w3.org/2000/svg" viewBox="0 0 152.53 43.54"><defs><style>.cls-1{fill:#19aa1e;}.cls-1,.cls-2,.cls-3{fill-rule:evenodd;}.cls-2{fill:#fff;}.cls-3{fill:#1a1a1a;}</style></defs><path class="cls-1" d="M21.77,43.54A21.77,21.77,0,1,0,0,21.77,21.81,21.81,0,0,0,21.77,43.54Z"/><path class="cls-2" d="M21.77,7.4A11.7,11.7,0,0,1,33.83,18.9,15.86,15.86,0,0,1,32.09,26c-7.14,0-8.45,4.75-8.75,7.93l-.22,2.22h-2.7l-.22-2.22C19.9,30.74,18.59,26,11.45,26A15.86,15.86,0,0,1,9.71,18.9,11.7,11.7,0,0,1,21.77,7.4Z"/><path class="cls-3" d="M61.48,7.4c-6.79,0-11.89,4.14-11.84,11.32H56a5.25,5.25,0,0,1,5.53-5.66,4.36,4.36,0,0,1,4.7,4.36c0,2.52-2,3.92-5.22,5.48a80.25,80.25,0,0,1-11.32,4.53V35.7H72.71V30H58.17c2.18-.91,4.31-1.9,6.23-2.83,5.09-2.43,8.1-5.18,8.1-10.1C72.5,11.19,68.06,7.4,61.48,7.4Zm20.81,6.1H95.36V7.84H76.2V35.7h6.09ZM104.5,7.84H98.4V35.7h6.06l11.36-17.8V35.7h6.1V7.84h-6.1L104.5,25.65Zm48,17.41h-6.32a7.53,7.53,0,0,1-7.31,5.23c-5,0-8.28-4.31-8.28-8.71a8.45,8.45,0,0,1,8.45-8.71,7.3,7.3,0,0,1,7.14,5.23h6.32c-.92-6.23-5.84-10.89-13.63-10.89-8.62,0-14.37,6-14.37,14.37s5.75,14.37,14.37,14.37C146.69,36.14,151.61,31.57,152.53,25.25Z"/></svg>