<svg width="278" height="80" viewBox="0 0 278 80" fill="none" xmlns="http://www.w3.org/2000/svg">
<g clip-path="url(#clip0_771_3841)">
<path d="M24.3972 21.1247H20.5061C13.4315 21.1247 9.72247 24.7374 9.72247 30.0954C9.72247 36.1678 12.2996 38.9743 17.5954 42.5973L21.9513 45.557L9.36876 64.5394H0L11.2788 47.5572C4.76014 42.8626 1.12181 38.3722 1.12181 30.5751C1.12181 20.8899 7.77192 14.3379 20.4152 14.3379H32.9978V64.5394H24.3668V21.1247H24.3972ZM68.5727 28.2074V64.5292H60.0731V49.3739H48.7033V64.5292H40.2038V28.2074H48.7033V42.5871H60.0731V28.2074H68.5727ZM106.977 72.8162H99.1045V64.4986H80.0032V72.8162H72.1302V57.7323H74.7882C77.8202 51.6599 78.376 40.1786 78.376 31.2997V28.238H103.188V57.7731H106.977V72.857V72.8162ZM94.688 34.9941H85.6831V36.0657C85.6831 42.3422 85.0363 52.2417 82.6511 57.7425H94.6677V34.9941H94.688ZM126.069 65.1926C115.204 65.1926 109.049 59.0692 109.049 46.4142C109.049 35.4431 113.991 27.4317 124.361 27.4317C132.86 27.4317 138.368 32.208 138.368 44.7813V49.3228H117.842C118.196 55.3952 120.561 58.3548 126.786 58.3548C130.766 58.2898 134.65 57.1097 138.005 54.9462V61.9676C135.518 63.7026 131.516 65.1314 126.069 65.1314V65.1926ZM117.842 43.0361H129.717V42.3218C129.717 37.7803 128.424 34.2491 124.209 34.2491C120.167 34.2491 118.085 37.3108 117.852 43.0361H117.842ZM152.608 46.6898V64.5394H144.079V28.2074H152.608V44.9446L164.645 28.2074H173.236L161.219 44.9446L174.843 64.5088H165.171L152.608 46.6898ZM174.368 46.3938C174.368 35.3309 180.027 27.4725 190.892 27.4725C195.106 27.4725 198.26 28.1869 200.038 29.2075V36.5046C197.528 35.0579 194.692 34.2849 191.802 34.2593C186.233 34.2593 183.16 38.3416 183.16 46.1897C183.16 53.6908 185.677 58.4365 191.751 58.4365C194.703 58.5468 197.611 57.6874 200.038 55.9871V62.9882C197.966 64.5088 195.177 65.2334 191.246 65.2334C179.876 65.2334 174.358 58.5079 174.358 46.3734L174.368 46.3938Z" fill="black"/>
<path fill-rule="evenodd" clip-rule="evenodd" d="M251.2 6C245.952 6.00229 240.823 7.57521 236.459 10.52C232.096 13.4649 228.695 17.6495 226.685 22.5453C224.676 27.4411 224.148 32.8284 225.17 38.0268C226.191 43.2251 228.715 48.0013 232.423 51.7519C237.233 56.6098 248.542 63.6312 249.21 70.9997C249.154 71.2947 249.164 71.5984 249.238 71.8892C249.312 72.18 249.449 72.4506 249.639 72.6818C249.828 72.9131 250.066 73.0992 250.335 73.227C250.604 73.3548 250.898 73.421 251.195 73.421C251.493 73.421 251.786 73.3548 252.056 73.227C252.325 73.0992 252.562 72.9131 252.752 72.6818C252.942 72.4506 253.079 72.18 253.153 71.8892C253.227 71.5984 253.237 71.2947 253.181 70.9997C253.848 63.621 265.158 56.6098 269.958 51.7621C273.668 48.0133 276.195 43.2381 277.219 38.0399C278.242 32.8417 277.718 27.4538 275.71 22.5567C273.703 17.6596 270.303 13.4731 265.941 10.5263C261.578 7.57938 256.449 6.00431 251.2 6Z" fill="#FF4433"/>
<ellipse cx="251.064" cy="33.4879" rx="9.43069" ry="9.51235" fill="#921316"/>
</g>
<defs>
<clipPath id="clip0_771_3841">
<rect width="278" height="67" fill="white" transform="translate(0 6)"/>
</clipPath>
</defs>
</svg>
