<?xml version="1.0" encoding="iso-8859-1"?>
<!-- Generator: Adobe Illustrator 21.0.0, SVG Export Plug-In . SVG Version: 6.00 Build 0)  -->
<svg version="1.1" id="Layer_1" xmlns="http://www.w3.org/2000/svg" xmlns:xlink="http://www.w3.org/1999/xlink" x="0px" y="0px"
	 viewBox="0 0 100.355 100.352" style="enable-background:new 0 0 100.355 100.352;" xml:space="preserve">
<path d="M85.976,34.251h-1.5l1.367-0.617c-6.211-13.763-19.174-21.979-34.674-21.979c-21.098,0-38.263,17.164-38.263,38.261
	s17.165,38.261,38.263,38.261c8.017,0,15.692-2.453,22.196-7.094l-1.742-2.442c-5.993,4.276-13.065,6.536-20.454,6.536
	c-19.444,0-35.263-15.818-35.263-35.261s15.819-35.261,35.263-35.261c14.397,0,25.968,7.269,31.807,19.945l0.007,20.419
	c0,4.511-3.669,8.18-8.178,8.18c-4.4,0-8.405-4.022-8.561-8.507c0.459-1.513,0.711-3.115,0.711-4.775
	c0-9.094-7.397-16.493-16.49-16.493c-9.095,0-16.494,7.398-16.494,16.493c0,9.094,7.399,16.492,16.494,16.492
	c5.738,0,10.796-2.95,13.75-7.41c1.832,4.148,5.999,7.2,10.59,7.2c6.164,0,11.178-5.016,11.178-11.181L85.976,34.251z
	 M50.464,63.408c-7.441,0-13.494-6.053-13.494-13.492c0-7.44,6.053-13.493,13.494-13.493c7.438,0,13.49,6.053,13.49,13.493
	C63.954,57.355,57.902,63.408,50.464,63.408z"/>
</svg>
