<?xml version="1.0" encoding="UTF-8"?>
<!DOCTYPE svg PUBLIC "-//W3C//DTD SVG 1.1//EN" "http://www.w3.org/Graphics/SVG/1.1/DTD/svg11.dtd">
<!-- Creator: CorelDRAW 2018 (64-Bit) -->
<svg xmlns="http://www.w3.org/2000/svg" xml:space="preserve" width="2061px" height="315px" version="1.1" style="shape-rendering:geometricPrecision; text-rendering:geometricPrecision; image-rendering:optimizeQuality; fill-rule:evenodd; clip-rule:evenodd"
viewBox="0 0 2251.37 344.47"
 xmlns:xlink="http://www.w3.org/1999/xlink">
 <defs>
  <style type="text/css">
   <![CDATA[
    .fil1 {fill:#D7B56D}
    .fil0 {fill:#2B2A29;fill-rule:nonzero}
   ]]>
  </style>
 </defs>
 <g id="Слой_x0020_1">
  <metadata id="CorelCorpID_0Corel-Layer"/>
  <polygon class="fil0" points="50.69,257.97 50.68,130.57 193,228.33 193,160.41 224.24,181.83 224.24,287.61 81.82,189.79 81.86,257.97 "/>
  <polygon class="fil1" points="262.54,257.97 262.54,168.91 154.6,94.89 105.1,130.16 77.74,111.4 154.28,56.86 293.78,152.53 293.78,257.97 "/>
  <path class="fil0" d="M7.13 0l337.34 0 0 344.47 -344.47 0 0 -344.47 7.13 0zm323.07 14.26l-315.94 0 0 315.94 315.94 0 0 -315.94z"/>
  <path class="fil0" d="M1594.18 271.48l-15.62 0 0 -94.04 -124.17 0 0 94.04 -15.62 0 0 -198.89 15.62 0 0 90.07 124.17 0 0 -90.07 15.62 0 0 198.89zm46.89 -99.44c0,-28.98 9.47,-53.23 28.41,-72.74 18.94,-19.51 42.71,-29.27 71.31,-29.27 28.42,0 52.09,9.67 71.04,28.99 19.13,19.13 28.69,43.47 28.69,73.02 0,28.98 -9.56,53.32 -28.69,73.02 -18.95,19.32 -42.62,28.98 -71.04,28.98 -28.41,0 -52.18,-9.57 -71.31,-28.7 -18.94,-19.13 -28.41,-43.56 -28.41,-73.3zm16.47 0c0,24.62 7.96,45.36 23.87,62.22 16.1,16.67 35.9,25 59.38,25 24.25,0 44.14,-8.33 59.67,-25 15.72,-16.86 23.58,-37.6 23.58,-62.22 0,-25.2 -8.05,-45.94 -24.15,-62.23 -15.91,-16.67 -35.61,-25 -59.1,-25 -23.67,0 -43.47,8.33 -59.38,25 -15.91,16.48 -23.87,37.22 -23.87,62.23zm245.49 99.44l-15.63 0 0 -202.77 96.04 116.1 92.05 -116.1 0 202.77 -15.62 0 0 -157.45 -77.06 98.2 -79.78 -97.34 0 156.59zm348.34 0l-112.8 0 0 -198.89 109.96 0 0 14.78 -94.33 0 0 75.86 85.8 0 0 14.77 -85.8 0 0 78.71 97.17 0 0 14.77z"/>
  <path class="fil0" d="M617.11 74.65l0 200.02 -140.56 -136.44 0 133.32 -26.41 0 0 -201.53 140.57 133.2 0 -130.64 26.4 0 0 2.07zm39 97.42c0,-28.76 9.57,-53 28.71,-72.7 9.57,-9.86 20.43,-17.26 32.57,-22.18 12.12,-4.93 25.51,-7.39 40.16,-7.39 14.55,0 27.86,2.39 39.93,7.17 12.1,4.79 22.94,11.97 32.51,21.54 9.66,9.58 16.92,20.51 21.75,32.79 4.83,12.26 7.24,25.85 7.24,40.77 0,14.54 -2.41,27.93 -7.24,40.14 -4.83,12.22 -12.08,23.26 -21.74,33.11 -9.67,9.68 -20.55,16.93 -32.65,21.76 -12.08,4.84 -25.35,7.26 -39.8,7.26 -28.95,0 -53.18,-9.58 -72.7,-28.71 -9.59,-9.59 -16.78,-20.52 -21.56,-32.8 -4.78,-12.27 -7.18,-25.86 -7.18,-40.76zm29.19 0c0,21.35 6.96,39.44 20.87,54.25 6.94,7.21 14.69,12.61 23.23,16.21 8.54,3.6 17.93,5.4 28.15,5.4 10.67,0 20.34,-1.8 28.99,-5.41 8.64,-3.59 16.28,-8.99 22.94,-16.19 6.77,-7.24 11.85,-15.36 15.23,-24.37 3.39,-9.03 5.08,-19 5.08,-29.89 0,-21.72 -6.95,-39.8 -20.85,-54.24 -6.94,-7.22 -14.7,-12.63 -23.24,-16.23 -8.55,-3.6 -17.94,-5.4 -28.15,-5.4 -10.41,0 -19.91,1.78 -28.51,5.34 -8.59,3.55 -16.31,8.89 -23.16,16.01 -6.86,7.12 -12,15.22 -15.42,24.28 -3.44,9.08 -5.16,19.16 -5.16,30.24zm274.72 -4.86c8.5,0 16.6,-4.53 22.81,-10.82 7.12,-7.18 11.74,-16.58 11.74,-24.13 0,-11.3 -3.54,-19.73 -10.62,-25.3 -7.23,-5.69 -18.22,-8.53 -32.96,-8.53 -1.3,0 -7.56,0.07 -15.54,0.2l-15.8 0.3 0 172.62 -27.8 0 0 -198.97 2.07 0c4.98,0 9.57,-0.02 13.7,-0.06 4.65,-0.05 9.46,-0.12 14.38,-0.21 4.35,-0.08 9.59,-0.15 14.62,-0.19l15.76 -0.1c47.58,0 71.38,19.99 71.38,59.97 0,14.97 -4.34,27.47 -13.02,37.51 -4.04,4.9 -8.63,8.98 -13.76,12.25 -4.3,2.73 -8.99,4.89 -14.07,6.48l65.58 83.32 -34.22 0c-26.66,-34.76 -53.28,-69.56 -79.91,-104.34l25.66 0zm122.07 104.34l-5.13 0 0 -198.97 5.41 0c4.41,0 8.38,-0.02 11.85,-0.06 3.92,-0.05 7.83,-0.12 11.76,-0.21l26.21 -0.57c9.55,0 18.54,0.65 26.95,1.94 8.44,1.3 16.3,3.25 23.56,5.84 7.27,2.59 13.82,5.7 19.67,9.31 5.86,3.62 10.99,7.75 15.37,12.37 4.36,4.59 8.17,9.48 11.42,14.66 3.25,5.17 5.95,10.63 8.08,16.38 2.14,5.74 3.74,11.73 4.8,17.94 1.07,6.23 1.6,12.69 1.6,19.38 0,14.83 -2.49,28.39 -7.46,40.65 -4.97,12.27 -12.44,23.25 -22.39,32.92 -9.88,9.68 -21.82,16.94 -35.84,21.77 -13.95,4.8 -29.95,7.21 -47.99,7.21 -7.6,0 -15.23,-0.1 -22.87,-0.29 -3.63,-0.09 -7.52,-0.16 -11.66,-0.21 -3.67,-0.04 -8.12,-0.06 -13.34,-0.06zm49.54 -173.4c-1.83,0 -3.92,0.03 -6.26,0.1 -2.46,0.06 -5.41,0.17 -8.83,0.31l-8.55 0.31 -3.24 0.09 0 146.19 5.06 0.04 6.97 0.1 5.96 0.14 8.06 0.28c26.36,-0.01 46.95,-6.97 61.76,-20.87 7.29,-7.03 12.77,-15.13 16.41,-24.31 3.65,-9.2 5.48,-19.53 5.48,-30.97 0,-10.68 -1.78,-20.33 -5.33,-28.93 -3.55,-8.58 -8.88,-16.15 -15.98,-22.72 -7.11,-6.56 -15.77,-11.5 -25.96,-14.79 -10.26,-3.31 -22.12,-4.97 -35.55,-4.97zm182.31 173.4l-25.73 0 0 -198.97 27.8 0 0 198.97 -2.07 0z"/>
 </g>
</svg>
